<?xml version="1.0" standalone="no"?>
<!DOCTYPE svg PUBLIC "-//W3C//DTD SVG 20010904//EN"
 "http://www.w3.org/TR/2001/REC-SVG-20010904/DTD/svg10.dtd">
<svg version="1.0" xmlns="http://www.w3.org/2000/svg"
 width="343.000000pt" height="30.000000pt" viewBox="0 0 343.000000 30.000000"
 preserveAspectRatio="xMidYMid meet">

<g transform="translate(0.000000,30.000000) scale(0.100000,-0.100000)"
fill="#0a7a49" stroke="none">
<path d="M0 150 l0 -150 150 0 150 0 0 125 c0 69 -2 125 -5 125 -3 0 -17 -7
-31 -16 -28 -19 -43 -12 -24 11 11 13 10 19 -5 35 -10 11 -29 20 -43 20 -25 0
-25 0 -6 -21 19 -21 18 -21 -5 -40 -22 -18 -51 -26 -51 -14 0 3 5 14 12 24 16
27 -5 51 -45 51 -30 0 -30 0 -11 -21 18 -20 18 -21 -6 -40 -35 -26 -59 -26
-35 1 17 19 17 21 0 40 -40 44 -45 29 -45 -130z m258 -22 c3 -16 -7 -18 -112
-18 -110 0 -116 1 -116 20 0 20 5 21 112 18 98 -3 113 -5 116 -20z m0 -75 c-3
-16 -18 -18 -116 -21 -107 -3 -112 -2 -112 18 0 19 6 20 116 20 105 0 115 -2
112 -17z"/>
<path d="M270 285 c7 -8 16 -15 21 -15 5 0 9 7 9 15 0 9 -9 15 -21 15 -18 0
-19 -2 -9 -15z"/>
<path d="M505 289 c57 -11 127 -11 120 1 -3 6 -41 9 -83 9 -68 -1 -72 -2 -37
-10z"/>
<path d="M630 243 c-6 -32 -20 -92 -31 -135 -27 -109 -27 -110 24 -106 l42 3
16 65 16 65 8 -68 7 -68 31 3 c32 3 36 8 67 78 l20 45 -6 -62 -6 -63 45 0 c49
0 57 10 57 78 l0 34 66 -8 c49 -5 65 -4 60 5 -4 6 -32 11 -62 11 -43 0 -54 3
-54 16 0 14 9 16 60 11 33 -3 60 -1 60 4 0 5 -27 9 -59 9 l-60 0 6 70 6 70
-56 0 -55 0 -28 -70 c-15 -38 -31 -67 -35 -64 -5 3 -9 34 -9 70 l0 64 -59 0
-60 0 -11 -57z"/>
<path d="M2280 289 c64 -11 120 -11 120 1 0 6 -33 9 -82 9 -75 -1 -78 -2 -38
-10z"/>
<path d="M2411 248 c-21 -108 -41 -221 -41 -234 0 -16 65 -18 193 -8 83 7 105
24 32 24 -35 0 -45 4 -45 16 0 14 8 16 50 11 28 -3 50 -2 50 2 0 5 -40 12 -90
16 -49 4 -90 8 -90 9 0 0 7 37 15 81 8 44 14 92 15 108 0 25 -3 27 -39 27
l-40 0 -10 -52z"/>
<path d="M1150 250 c-57 -14 -90 -74 -90 -168 0 -58 25 -82 85 -82 88 0 126
43 140 157 4 37 2 53 -12 69 -21 25 -74 35 -123 24z m53 -102 c-11 -58 -22
-78 -43 -78 -22 0 -24 11 -14 73 6 33 10 37 35 37 27 0 28 -2 22 -32z"/>
<path d="M2983 249 c-59 -17 -86 -112 -41 -143 12 -9 33 -16 45 -16 13 0 23
-5 23 -11 0 -8 -17 -10 -50 -7 -47 5 -49 4 -60 -25 -13 -40 -2 -47 72 -47 91
0 128 29 128 98 0 38 -10 50 -55 66 l-40 15 48 0 c26 1 47 5 47 9 0 5 27 6 60
4 40 -3 60 -1 60 7 0 7 -21 11 -55 11 -44 0 -55 3 -55 16 0 14 8 16 60 10 40
-5 60 -3 60 4 0 6 -30 10 -79 10 -43 0 -91 2 -107 4 -16 3 -44 1 -61 -5z"/>
<path d="M535 239 c42 -5 74 -4 79 2 6 5 -20 9 -70 8 l-79 -2 70 -8z"/>
<path d="M1023 243 c15 -2 39 -2 55 0 15 2 2 4 -28 4 -30 0 -43 -2 -27 -4z"/>
<path d="M1281 246 c10 -9 139 -14 139 -6 0 6 -32 10 -72 10 -39 0 -69 -2 -67
-4z"/>
<path d="M1440 202 c0 -27 3 -83 6 -125 l7 -77 53 0 c29 0 56 5 59 11 5 7 34
8 86 3 56 -5 79 -3 79 5 0 7 -26 11 -75 11 -59 0 -75 3 -75 14 0 8 5 18 10 21
6 3 10 15 10 26 0 19 4 20 70 13 49 -5 70 -3 70 5 0 7 -23 11 -65 11 -55 0
-64 2 -58 16 5 14 17 16 70 11 38 -4 63 -2 63 3 0 6 -27 10 -61 10 -52 0 -60
2 -55 16 3 9 6 17 6 18 0 1 27 0 60 -2 40 -3 60 -1 60 7 0 7 -21 11 -56 11
-40 0 -54 3 -51 13 3 8 22 11 61 9 34 -1 56 2 56 8 0 7 -35 10 -97 8 l-98 -3
-20 -57 c-28 -80 -35 -81 -35 -5 l0 67 -40 0 -40 0 0 -48z"/>
<path d="M1763 133 c-11 -65 -18 -121 -16 -125 6 -11 71 -10 78 2 3 5 33 7 72
3 49 -5 64 -3 59 5 -4 7 -32 12 -67 12 -48 0 -59 3 -59 16 0 14 9 16 65 12 36
-3 65 -2 65 3 0 5 -27 9 -60 9 -54 0 -60 2 -60 20 0 19 4 20 65 14 46 -5 65
-3 65 5 0 7 -23 11 -65 11 -55 0 -64 2 -58 16 5 14 17 16 70 11 38 -4 63 -2
63 3 0 6 -30 10 -66 10 -56 0 -65 2 -60 16 3 9 6 17 6 19 0 1 30 0 67 -3 48
-4 64 -2 59 7 -4 6 -33 11 -67 11 -48 0 -59 3 -59 16 0 15 9 16 65 11 37 -4
67 -2 70 3 4 6 -36 10 -103 10 l-109 0 -20 -117z"/>
<path d="M2010 243 c0 -5 -9 -60 -20 -123 -11 -63 -20 -116 -20 -118 0 -2 37
-2 83 0 l82 3 3 33 c3 31 3 32 -38 32 -34 0 -41 3 -38 17 2 13 14 19 41 21 29
3 37 7 37 23 0 15 -7 19 -36 19 -50 0 -39 24 13 28 32 2 42 8 47 25 12 46 10
47 -74 47 -44 0 -80 -3 -80 -7z"/>
<path d="M2315 239 c42 -5 74 -4 80 2 5 5 -21 9 -70 8 l-80 -2 70 -8z"/>
<path d="M2541 246 c10 -9 139 -14 139 -6 0 6 -32 10 -72 10 -39 0 -69 -2 -67
-4z"/>
<path d="M2695 228 c-8 -38 -35 -202 -35 -215 0 -16 66 -18 75 -3 4 6 33 8 76
4 49 -5 69 -4 69 5 0 7 -24 11 -68 11 l-69 0 10 61 10 62 69 -6 c40 -3 68 -2
68 4 0 5 -30 9 -66 9 l-65 0 7 45 6 45 -41 0 c-34 0 -41 -4 -46 -22z"/>
<path d="M2860 240 c37 -5 69 -4 75 1 5 5 -21 8 -65 8 l-75 -2 65 -7z"/>
<path d="M3240 231 c0 -11 -3 -26 -6 -35 -5 -12 0 -16 20 -16 30 0 30 -2 12
-98 -15 -81 -13 -86 41 -80 27 3 28 6 42 91 15 85 15 87 43 87 21 0 28 5 28
19 0 11 3 26 6 35 5 14 -6 16 -90 16 -88 0 -96 -2 -96 -19z"/>
<path d="M495 200 c29 -12 118 -12 110 0 -3 6 -34 10 -68 9 -44 0 -56 -3 -42
-9z"/>
<path d="M975 200 c29 -12 98 -12 90 0 -3 6 -30 10 -58 9 -38 0 -47 -3 -32 -9z"/>
<path d="M1315 200 c29 -12 118 -12 110 0 -3 6 -34 10 -68 9 -44 0 -56 -3 -42
-9z"/>
<path d="M2275 200 c29 -12 118 -12 110 0 -3 6 -34 10 -68 9 -44 0 -56 -3 -42
-9z"/>
<path d="M2565 200 c29 -12 118 -12 110 0 -3 6 -34 10 -68 9 -44 0 -56 -3 -42
-9z"/>
<path d="M2805 200 c28 -12 105 -12 105 0 0 6 -27 10 -62 9 -45 0 -57 -3 -43
-9z"/>
<path d="M520 149 c40 -5 68 -5 74 1 7 7 -17 10 -64 9 l-75 -2 65 -8z"/>
<path d="M1301 156 c11 -9 129 -15 129 -6 0 6 -30 10 -67 10 -36 0 -64 -2 -62
-4z"/>
<path d="M2251 156 c11 -9 129 -15 129 -6 0 6 -30 10 -67 10 -36 0 -64 -2 -62
-4z"/>
<path d="M2531 156 c11 -10 139 -16 139 -6 0 6 -29 10 -72 10 -39 0 -69 -2
-67 -4z"/>
<path d="M3131 156 c11 -9 129 -15 129 -6 0 6 -30 10 -67 10 -36 0 -64 -2 -62
-4z"/>
<path d="M475 109 c56 -11 105 -11 105 1 0 6 -30 10 -72 9 -66 -1 -69 -2 -33
-10z"/>
<path d="M1325 109 c56 -11 105 -11 105 1 0 6 -30 10 -72 9 -66 -1 -69 -2 -33
-10z"/>
<path d="M2265 109 c56 -11 105 -11 105 1 0 6 -30 10 -72 9 -66 -1 -69 -2 -33
-10z"/>
<path d="M2555 109 c56 -11 105 -11 105 1 0 6 -30 10 -72 9 -66 -1 -69 -2 -33
-10z"/>
<path d="M2815 109 c56 -11 95 -11 95 1 0 6 -28 10 -67 9 -63 -1 -65 -2 -28
-10z"/>
<path d="M3155 109 c56 -11 105 -11 105 1 0 6 -30 10 -72 9 -66 -1 -69 -2 -33
-10z"/>
<path d="M451 66 c10 -8 119 -14 119 -5 0 5 -28 9 -62 9 -34 0 -59 -2 -57 -4z"/>
<path d="M950 64 c38 -8 90 -9 90 -2 0 4 -24 7 -52 7 -29 -1 -46 -3 -38 -5z"/>
<path d="M1311 66 c10 -8 119 -14 119 -5 0 5 -28 9 -62 9 -34 0 -59 -2 -57 -4z"/>
<path d="M1665 60 c34 -5 64 -4 70 1 5 5 -18 8 -60 8 l-70 -2 60 -7z"/>
<path d="M2241 66 c10 -8 119 -14 119 -5 0 5 -28 9 -62 9 -34 0 -59 -2 -57 -4z"/>
<path d="M2771 66 c10 -8 119 -14 119 -5 0 5 -28 9 -62 9 -34 0 -59 -2 -57 -4z"/>
<path d="M3121 66 c11 -9 129 -15 129 -6 0 6 -30 10 -67 10 -36 0 -64 -2 -62
-4z"/>
<path d="M450 19 c64 -11 110 -11 110 1 0 6 -32 9 -77 9 -72 -1 -74 -2 -33
-10z"/>
<path d="M985 19 c55 -11 77 -11 70 1 -3 6 -30 9 -58 9 l-52 -1 40 -9z"/>
<path d="M1325 19 c56 -11 105 -11 105 1 0 6 -30 10 -72 9 -66 -1 -69 -2 -33
-10z"/>
<path d="M2240 19 c64 -11 120 -11 120 1 0 6 -33 9 -82 9 -75 -1 -78 -2 -38
-10z"/>
<path d="M3125 19 c56 -11 115 -11 115 1 0 6 -32 10 -77 9 -69 -1 -73 -2 -38
-10z"/>
</g>
</svg>
